<svg xmlns="http://www.w3.org/2000/svg" width="1000" height="700" viewBox="0 0 1000 700"><rect width="1000" height="700" fill="#f6f6f6"/><path d="M0 370H1000" stroke="#c2c2c2" opacity=".5"/><path d="M0 404H1000" stroke="#c2c2c2" opacity=".5"/><path d="M0 438H1000" stroke="#c2c2c2" opacity=".5"/><path d="M0 472H1000" stroke="#c2c2c2" opacity=".5"/><path d="M0 506H1000" stroke="#c2c2c2" opacity=".5"/><path d="M0 540H1000" stroke="#c2c2c2" opacity=".5"/><path d="M0 574H1000" stroke="#c2c2c2" opacity=".5"/><path d="M0 608H1000" stroke="#c2c2c2" opacity=".5"/><path d="M0 642H1000" stroke="#c2c2c2" opacity=".5"/><path d="M0 676H1000" stroke="#c2c2c2" opacity=".5"/><path d="M500 280L-500 700" stroke="#c2c2c2" opacity=".5"/><path d="M500 280L-420 700" stroke="#c2c2c2" opacity=".5"/><path d="M500 280L-340 700" stroke="#c2c2c2" opacity=".5"/><path d="M500 280L-260 700" stroke="#c2c2c2" opacity=".5"/><path d="M500 280L-180 700" stroke="#c2c2c2" opacity=".5"/><path d="M500 280L-100 700" stroke="#c2c2c2" opacity=".5"/><path d="M500 280L-20 700" stroke="#c2c2c2" opacity=".5"/><path d="M500 280L60 700" stroke="#c2c2c2" opacity=".5"/><path d="M500 280L140 700" stroke="#c2c2c2" opacity=".5"/><path d="M500 280L220 700" stroke="#c2c2c2" opacity=".5"/><path d="M500 280L300 700" stroke="#c2c2c2" opacity=".5"/><path d="M500 280L380 700" stroke="#c2c2c2" opacity=".5"/><path d="M500 280L460 700" stroke="#c2c2c2" opacity=".5"/><path d="M500 280L540 700" stroke="#c2c2c2" opacity=".5"/><path d="M500 280L620 700" stroke="#c2c2c2" opacity=".5"/><path d="M500 280L700 700" stroke="#c2c2c2" opacity=".5"/><path d="M500 280L780 700" stroke="#c2c2c2" opacity=".5"/><path d="M500 280L860 700" stroke="#c2c2c2" opacity=".5"/><path d="M500 280L940 700" stroke="#c2c2c2" opacity=".5"/><path d="M500 280L1020 700" stroke="#c2c2c2" opacity=".5"/><path d="M500 280L1100 700" stroke="#c2c2c2" opacity=".5"/><path d="M500 280L1180 700" stroke="#c2c2c2" opacity=".5"/><path d="M500 280L1260 700" stroke="#c2c2c2" opacity=".5"/><path d="M500 280L1340 700" stroke="#c2c2c2" opacity=".5"/><path d="M500 280L1420 700" stroke="#c2c2c2" opacity=".5"/><path d="M500 280L1500 700" stroke="#c2c2c2" opacity=".5"/><path d="M500 280L1580 700" stroke="#c2c2c2" opacity=".5"/><ellipse cx="143" cy="481" rx="55" ry="9" fill="#777777" opacity=".08"/><g transform="translate(143 390)" stroke="#a4a4a4" stroke-linecap="round" stroke-linejoin="round"><circle cx="0" cy="-136" r="17" fill="#a4a4a4" stroke="none"/><path d="M0,-100L-6,-32" stroke-width="28"/><path d="M0,-100L-29,-85" stroke-width="15"/><path d="M-29,-85L-48,-57" stroke-width="15"/><path d="M0,-100L31,-85" stroke-width="15"/><path d="M31,-85L48,-110" stroke-width="15"/><path d="M-6,-32L-21,34" stroke-width="15"/><path d="M-21,34L-35,76" stroke-width="15"/><path d="M-6,-32L19,30" stroke-width="15"/><path d="M19,30L32,76" stroke-width="15"/></g><text x="128" y="552" fill="#777777" font-size="10" font-family="monospace">t+0</text><ellipse cx="323" cy="481" rx="55" ry="9" fill="#777777" opacity=".08"/><g transform="translate(323 390)" stroke="#a4a4a4" stroke-linecap="round" stroke-linejoin="round"><circle cx="0" cy="-140" r="17" fill="#a4a4a4" stroke="none"/><path d="M0,-102L-4,-32" stroke-width="28"/><path d="M0,-102L-36,-100" stroke-width="15"/><path d="M-36,-100L-61,-129" stroke-width="15"/><path d="M0,-102L36,-74" stroke-width="15"/><path d="M36,-74L59,-53" stroke-width="15"/><path d="M-4,-32L-25,24" stroke-width="15"/><path d="M-25,24L-60,63" stroke-width="15"/><path d="M-4,-32L23,19" stroke-width="15"/><path d="M23,19L43,76" stroke-width="15"/></g><text x="308" y="552" fill="#777777" font-size="10" font-family="monospace">t+8</text><ellipse cx="503" cy="481" rx="55" ry="9" fill="#777777" opacity=".08"/><g transform="translate(503 390)" stroke="#676767" stroke-linecap="round" stroke-linejoin="round"><circle cx="0" cy="-145" r="17" fill="#676767" stroke="none"/><path d="M0,-103L5,-31" stroke-width="28"/><path d="M0,-103L-35,-118" stroke-width="15"/><path d="M-35,-118L-49,-157" stroke-width="15"/><path d="M0,-103L31,-118" stroke-width="15"/><path d="M31,-118L51,-157" stroke-width="15"/><path d="M5,-31L-9,32" stroke-width="15"/><path d="M-9,32L-20,77" stroke-width="15"/><path d="M5,-31L35,23" stroke-width="15"/><path d="M35,23L67,55" stroke-width="15"/></g><text x="488" y="552" fill="#777777" font-size="10" font-family="monospace">t+16</text><ellipse cx="683" cy="481" rx="55" ry="9" fill="#777777" opacity=".08"/><g transform="translate(683 390)" stroke="#a4a4a4" stroke-linecap="round" stroke-linejoin="round"><circle cx="0" cy="-142" r="17" fill="#a4a4a4" stroke="none"/><path d="M0,-101L1,-33" stroke-width="28"/><path d="M0,-101L-34,-79" stroke-width="15"/><path d="M-34,-79L-62,-58" stroke-width="15"/><path d="M0,-101L36,-108" stroke-width="15"/><path d="M36,-108L70,-130" stroke-width="15"/><path d="M1,-33L-21,28" stroke-width="15"/><path d="M-21,28L-53,68" stroke-width="15"/><path d="M1,-33L24,31" stroke-width="15"/><path d="M24,31L26,79" stroke-width="15"/></g><text x="668" y="552" fill="#777777" font-size="10" font-family="monospace">t+24</text><ellipse cx="863" cy="481" rx="55" ry="9" fill="#777777" opacity=".08"/><g transform="translate(863 390)" stroke="#a4a4a4" stroke-linecap="round" stroke-linejoin="round"><circle cx="0" cy="-138" r="17" fill="#a4a4a4" stroke="none"/><path d="M0,-100L-4,-32" stroke-width="28"/><path d="M0,-100L-29,-83" stroke-width="15"/><path d="M-29,-83L-40,-52" stroke-width="15"/><path d="M0,-100L31,-88" stroke-width="15"/><path d="M31,-88L49,-63" stroke-width="15"/><path d="M-4,-32L-12,29" stroke-width="15"/><path d="M-12,29L-17,79" stroke-width="15"/><path d="M-4,-32L16,32" stroke-width="15"/><path d="M16,32L26,79" stroke-width="15"/></g><text x="848" y="552" fill="#777777" font-size="10" font-family="monospace">t+32</text><g font-family="monospace" font-size="11" fill="#636363" letter-spacing="2"><text x="66" y="64">HUMAN MOTION / TEMPORAL STUDY</text><text x="67" y="593">CONTEXT → MOTION → EXPRESSION</text></g><path d="M100 530H910m-12-5 12 5-12 5" stroke="#b5b5b5" fill="none"/></svg>